# xmcd
#
# Track frame offsets:
# 150
# 18089
# 34854
# 53906
# 78622
# 102846
# 122824
# 140314
# 170913
# 182535
# 205495
#
# Disc length: 2984 seconds
#
#
# Revision: 0
# Processed by: cddbd v1.5.2PL0 Copyright (c) Steve Scherf et al.
# Submitted via: FreeRIP 2.951 
#
DISCID=950ba60b
DTITLE=Janis Joplin - I got dem ol' kozmic blues again Mama!
DYEAR=1969
DGENRE=blues-rock
TTITLE0=Try (just a little bit harder)
TTITLE1=Maybe
TTITLE2=One good man
TTITLE3=As good as you've been to this world
TTITLE4=To love somebody
TTITLE5=Kozmic blues
TTITLE6=Little girl blue
TTITLE7=Work me, Lord
TTITLE8=Dear Landlord
TTITLE9=Summertime (live)
TTITLE10=Piece of my heart (live)
EXTD=
EXTT0=
EXTT1=
EXTT2=
EXTT3=
EXTT4=
EXTT5=
EXTT6=
EXTT7=
EXTT8=bonus track
EXTT9=bonus track
EXTT10=bonus track
PLAYORDER=
